<svg width="33" height="32" viewBox="0 0 33 32" xmlns="http://www.w3.org/2000/svg">
    <path d="M25.196 20.444c.707 0 1.28.574 1.28 1.28v.996a1.28 1.28 0 0 1-1.28 1.28H7.756a1.28 1.28 0 0 1-1.28-1.28v-.996c0-.706.573-1.28 1.28-1.28h17.44zm0-6.222c.707 0 1.28.573 1.28 1.28v.996a1.28 1.28 0 0 1-1.28 1.28H7.756a1.28 1.28 0 0 1-1.28-1.28v-.996c0-.707.573-1.28 1.28-1.28h17.44zm0-6.222c.707 0 1.28.573 1.28 1.28v.996a1.28 1.28 0 0 1-1.28 1.28H7.756a1.28 1.28 0 0 1-1.28-1.28V9.28c0-.707.573-1.28 1.28-1.28h17.44z" fill="#FFF" fill-rule="evenodd"/>
</svg>
