<svg width="52" height="52" viewBox="0 0 52 52" xmlns="http://www.w3.org/2000/svg">
    <path d="M41.074 16.495c-1.33-2.068-2.94-3.762-4.822-5.078C34.37 10.1 32.216 9.162 29.8 8.603c-3.965-.917-7.82-.503-11.537 1.138a17.451 17.451 0 0 0-5.437 3.748c-1.954 1.987-3.366 4.237-4.226 6.75l-.022.068c-.03.089-.057.179-.086.268-.882 2.905-.058 4.51 1.24 3.166.05-.058.103-.115.154-.172.02-.023.04-.045.06-.07 1.516-1.881 3.93-3.45 3.93-3.45l.002.001a23.142 23.142 0 0 1 1.917-1.184c.758-.439 1.552-.841 2.291-1.112 0 0 .688-.31.872-1.254l.01-.053.006-.027c.123-.786.976-2.946 3.391-3.088a3.882 3.882 0 0 1 2.17.341c1.164.546 2.057 1.64 2.238 2.958.143 1.047-.11 2.035-.653 2.816-.029.045-.062.09-.098.135l-.032.042a3.884 3.884 0 0 1-1.815 1.278 4.187 4.187 0 0 1-1.329.256c-.27.035-.571 0-.873-.073a3.199 3.199 0 0 1-.92-.33c-.466-.215-.845-.459-.984-.585a.76.76 0 0 0-.344-.182 1.098 1.098 0 0 0-.615.071l-.005.002c-.084.037-.15.078-.197.113-.578.475-1.128.974-1.65 1.496-1.369 1.42-2.518 3.032-3.057 3.828a22.3 22.3 0 0 0-1.475 2.724c-.32.712-.622 1.477-.893 2.3l-.037.112-.05.156-.046.155c-1.66 5.612 1.33 8.853 3.835 5.467a26.925 26.925 0 0 1 .424-.644c2.626-4.484 8.014-7.72 8.014-7.72h.003c.33-.207.663-.406 1-.598l.001-.002.063-.034c.923-.523 1.873-.99 2.85-1.399.87-.381 1.793-.738 2.559-.921 0 0 .897-.23 1.138-1.32a3.738 3.738 0 0 1 2.044-2.54c.305-.153.624-.269.946-.34a4.011 4.011 0 0 1 1.036-.088h.002c.221-.004.407.021.565.067 1.647.313 2.995 1.646 3.191 3.402a3.9 3.9 0 0 1-3.408 4.318c-1.07.132-2.039-.098-2.865-.716-.927-.381-1.64-.137-1.897-.018-.809.436-1.584.919-2.327 1.448a26.238 26.238 0 0 0-2.914 2.503 21.72 21.72 0 0 0-2.532 3.11c-.039.059-.078.118-.117.18l-.03.047a23.005 23.005 0 0 0-2.219 4.542c-.05.143-.1.285-.146.43-.707 2.357.824 3.295 2.595 3.637.281.034.563.062.847.082.07.005.138.025.207.037h2.332c.118-.01.222-.02.312-.03.505-.06 1.01-.113 1.51-.197 3.449-.58 6.497-2 9.1-4.307 3.277-2.906 5.251-6.526 5.864-10.825.615-4.306-.247-8.343-2.61-12.02" fill="#FFF" fill-rule="evenodd"/>
</svg>
