<svg width="52" height="52" viewBox="0 0 52 52" xmlns="http://www.w3.org/2000/svg">
    <path d="M33.916 8.242a1.625 1.625 0 0 1 .966 1.932l-.06.18-13 32.5a1.625 1.625 0 0 1-3.079-1.027l.06-.18 13-32.5a1.625 1.625 0 0 1 2.113-.905zm-19.482 9.296a1.599 1.599 0 0 1 2.275 0 1.599 1.599 0 0 1 0 2.275l-6.337 6.338 6.337 6.337a1.599 1.599 0 0 1 0 2.275 1.599 1.599 0 0 1-2.275 0l-7.459-7.475a1.618 1.618 0 0 1 0-2.291zm23.4 0 7.459 7.459a1.618 1.618 0 0 1 0 2.291l-7.459 7.475a1.599 1.599 0 0 1-2.275 0 1.599 1.599 0 0 1 0-2.275l6.338-6.337-6.338-6.338a1.599 1.599 0 0 1 0-2.275 1.599 1.599 0 0 1 2.275 0z" fill="#FFF" fill-rule="evenodd"/>
</svg>
