<svg width="52" height="52" viewBox="0 0 52 52" xmlns="http://www.w3.org/2000/svg">
    <path d="M29.972 20.042h-7.944a1.992 1.992 0 0 0-1.986 1.986v7.944c0 1.093.893 1.986 1.986 1.986h7.944a1.992 1.992 0 0 0 1.986-1.986v-7.944a1.992 1.992 0 0 0-1.986-1.986zm-1.986 7.944h-3.972v-3.972h3.972v3.972zm15.889-5.958a1.992 1.992 0 0 0-1.986-1.986h-1.986v-3.973a3.984 3.984 0 0 0-3.972-3.972h-3.973v-1.986a1.992 1.992 0 0 0-1.986-1.986 1.992 1.992 0 0 0-1.986 1.986v1.986h-3.972v-1.986a1.992 1.992 0 0 0-1.986-1.986 1.992 1.992 0 0 0-1.986 1.986v1.986h-3.973a3.984 3.984 0 0 0-3.972 3.972v3.973h-1.986a1.992 1.992 0 0 0-1.986 1.986c0 1.092.894 1.986 1.986 1.986h1.986v3.972h-1.986a1.992 1.992 0 0 0-1.986 1.986c0 1.093.894 1.986 1.986 1.986h1.986v3.973a3.984 3.984 0 0 0 3.972 3.972h3.973v1.986c0 1.092.893 1.986 1.986 1.986a1.992 1.992 0 0 0 1.986-1.986v-1.986h3.972v1.986c0 1.092.894 1.986 1.986 1.986a1.992 1.992 0 0 0 1.986-1.986v-1.986h3.973a3.984 3.984 0 0 0 3.972-3.972v-3.973h1.986a1.992 1.992 0 0 0 1.986-1.986 1.992 1.992 0 0 0-1.986-1.986h-1.986v-3.972h1.986a1.992 1.992 0 0 0 1.986-1.986zm-9.93 13.903h-15.89a1.992 1.992 0 0 1-1.986-1.987V18.056c0-1.093.894-1.987 1.987-1.987h15.888c1.093 0 1.987.894 1.987 1.987v15.888a1.992 1.992 0 0 1-1.987 1.987z" fill="#FFF" fill-rule="evenodd"/>
</svg>
